<svg version="1.2" xmlns="http://www.w3.org/2000/svg" viewBox="0 0 64 64" width="64" height="64"><style>.s0{fill:#000000}</style><path class="s0" d="m45.1 44.6c-0.4 0.9-1.3 1.4-2.3 1.4q-0.5 0-1-0.2c-9.1-4.2-22.7-2.2-22.8-2.2c-1.4 0.2-2.7-0.7-2.9-2.1c-0.2-1.4 0.8-2.7 2.1-2.9c0.6 0 15.3-2.2 25.7 2.6c1.3 0.6 1.8 2.1 1.2 3.4z" /><path class="s0" d="m48.1 35.5c-0.5 0.9-1.4 1.5-2.3 1.5q-0.6 0-1.1-0.3c-10.4-4.8-26.1-2.5-26.3-2.5c-1.4 0.2-2.6-0.7-2.9-2.1c-0.2-1.4 0.8-2.7 2.2-2.9c0.7-0.1 17.3-2.5 29.1 3c1.3 0.6 1.8 2.1 1.3 3.3z" /><path class="s0" d="m50 26c-0.4 1-1.3 1.5-2.3 1.5q-0.5 0-1-0.2c-11.7-5.4-29.2-2.9-29.4-2.9c-1.4 0.2-2.7-0.7-2.9-2.1c-0.2-1.4 0.8-2.6 2.1-2.8c0.8-0.2 19.2-2.8 32.3 3.2c1.3 0.6 1.8 2.1 1.2 3.3z" /><path fill-rule="evenodd" class="s0" d="m63.4 32c0 17.3-14.1 31.4-31.4 31.4c-17.3 0-31.4-14.1-31.4-31.4c0-17.3 14.1-31.4 31.4-31.4c17.3 0 31.4 14.1 31.4 31.4zm-5.1 0c0-14.5-11.8-26.3-26.3-26.3c-14.5 0-26.3 11.8-26.3 26.3c0 14.5 11.8 26.3 26.3 26.3c14.5 0 26.3-11.8 26.3-26.3z" /></svg>